<?xml version="1.0" encoding="utf-8"?>
<!-- Generator: Adobe Illustrator 26.0.3, SVG Export Plug-In . SVG Version: 6.00 Build 0)  -->
<svg version="1.1" id="Layer_1" xmlns="http://www.w3.org/2000/svg" xmlns:xlink="http://www.w3.org/1999/xlink" x="0px" y="0px"
	 viewBox="0 0 841.9 595.3" style="enable-background:new 0 0 841.9 595.3;" xml:space="preserve">
<style type="text/css">
	.st0{fill:#2BB673;}
	.st1{fill:#12A460;}
</style>
<g>
	<g>
		<path class="st0" d="M209.5,144.6c-3.6,0-7.4,0.3-11.6,1c-4.2,0.7-8.3,1.9-12.3,3.6c-4,1.8-7.7,4.2-11.1,7.4
			c-3.3,3.2-6,7.2-8,12.1c-2,4.9-3,10.9-3,18v4.7h-19.7V216h19.7v72.1H196V216h25.2v-24.6H196v-3.9c0-2.7,0.3-5.1,0.9-7.2
			c0.6-2.2,1.5-4,2.8-5.6c1.3-1.6,3-2.8,5.3-3.6c2.2-0.8,5-1.2,8.4-1.2c2.2,0,4.2,0.2,6.1,0.5c1.9,0.3,3.2,0.6,3.9,0.9v-24.8
			c-0.7-0.3-2.1-0.7-4.1-1.2C217.1,144.8,213.9,144.6,209.5,144.6z"/>
		<path class="st0" d="M295.1,189.6c-4.9,0-9.2,0.8-13.1,2.3c-3.9,1.5-7.2,3.7-10.1,6.5c-1.9,1.8-3.5,4-5,6.3v-13.2h-32.5v96.6h32.5
			v-43.2c0-3.2,0.4-6.4,1.3-9.6c0.9-3.2,2.3-6.1,4.3-8.7c2-2.6,4.6-4.7,7.9-6.2c3.3-1.5,7.4-2.3,12.1-2.3c2.8,0,5.1,0.3,7,1
			c1.9,0.6,3.1,1.1,3.6,1.4l4.8-28.7c-0.5-0.3-1.9-0.7-4-1.3C302,189.8,299,189.6,295.1,189.6z"/>
		<path class="st0" d="M398,196c-8.1-4.3-17.7-6.4-28.8-6.4c-10.7,0-20.2,2.1-28.3,6.3c-8.2,4.2-14.5,10.1-19.1,17.7
			S315,229.9,315,240c0,9.9,2.2,18.6,6.7,26.2c4.5,7.6,10.8,13.5,18.9,17.8c8.1,4.3,17.7,6.4,28.7,6.4c8,0,15.2-0.9,21.5-2.7
			c6.3-1.8,11.7-4.3,16.2-7.4c4.5-3.1,8-6.6,10.5-10.6c2.5-3.9,4-8,4.4-12.1h-32c-0.2,1-0.7,2.1-1.4,3.1c-0.8,1.1-1.9,2-3.4,2.9
			c-1.5,0.9-3.4,1.6-5.8,2.1c-2.4,0.5-5.3,0.8-8.6,0.8c-5.4,0-9.8-1.1-13.3-3.2c-3.5-2.2-6-5.3-7.7-9.4c-0.6-1.5-1.1-3.1-1.5-4.9
			h74.7c0.1-0.8,0.2-1.8,0.3-3.2c0.1-1.3,0.1-2.8,0.1-4.5c0-10.5-2.2-19.6-6.6-27.4C412.3,206.3,406,200.3,398,196z M357.3,216.1
			c3.4-2,7.5-3,12.3-3c4.9,0,8.9,0.9,11.9,2.7c3,1.8,5.2,4,6.6,6.7c1.1,2.1,1.7,4.2,2,6.3h-41.8c0.4-1.3,0.8-2.6,1.3-3.8
			C351.4,221.1,354,218.1,357.3,216.1z"/>
		<path class="st0" d="M512,236.2c-4.1-2.2-8.5-3.8-13-5c-4.5-1.2-8.7-2-12.5-2.5c-3.8-0.6-7.2-1.3-10.2-2c-3-0.7-5.3-1.6-7-2.7
			c-1.7-1.1-2.5-2.4-2.5-4c0-1.8,0.7-3.2,2.2-4.1c1.5-0.9,3.2-1.6,5.3-2c2.1-0.4,4-0.6,5.7-0.6c2.1,0,4.1,0.3,6.1,0.9
			c2,0.6,3.6,1.5,4.9,2.8c1.3,1.3,2,2.9,2,5c0,0.1,0,0.3,0,0.5c0,0.2,0,0.4,0,0.5h31.9c0-0.2,0-0.4,0-0.6c0-0.2,0-0.4,0-0.5
			c0-6.7-2.1-12.4-6.3-17.3c-4.2-4.9-9.7-8.6-16.5-11.2c-6.8-2.6-14-3.9-21.8-3.9c-8.2,0-15.7,1.2-22.5,3.5
			c-6.8,2.4-12.3,5.8-16.4,10.4c-4.1,4.6-6.2,10.3-6.2,17.2c0,5,1.2,9.3,3.6,12.7c2.4,3.5,5.6,6.3,9.6,8.6c3.9,2.2,8.2,4,12.8,5.4
			c4.6,1.3,9,2.3,13.2,3c7.4,1.2,12.7,2.4,15.8,3.5c3.1,1.1,4.7,2.9,4.7,5.6c0,1.6-0.7,3-2.2,4c-1.5,1.1-3.3,1.8-5.5,2.3
			c-2.2,0.5-4.3,0.7-6.3,0.7c-4.5,0-8.1-0.7-10.8-2c-2.6-1.3-4-3.5-4-6.6c0-0.2,0-0.4,0-0.5s0-0.4,0-0.5h-32.2c0,0.2,0,0.4,0,0.6
			c0,0.2,0,0.5,0,0.6c0,5.4,1.3,10.1,4,14.2c2.6,4.1,6.2,7.4,10.6,10.1c4.4,2.7,9.3,4.7,14.7,6.1c5.4,1.3,11,2,16.8,2
			c5.6,0,11.1-0.6,16.6-1.7c5.5-1.2,10.4-3,15-5.5c4.5-2.5,8.1-5.8,10.8-9.9c2.7-4.1,4-9,4-14.8c0-5.5-1.3-10.1-4-13.7
			C519.5,241.2,516.1,238.4,512,236.2z"/>
		<path class="st0" d="M633.1,200c-5.7-6.9-14.5-10.4-26.3-10.4c-8,0-15,1.7-21.1,5.2c-4.7,2.7-8.6,6.2-11.6,10.5v-59.4h-32.4v142.2
			H574v-50.2c0-4.4,0.7-8.1,2-11.3c1.3-3.2,3.4-5.6,6.1-7.3c2.8-1.7,6.3-2.5,10.5-2.5c6.6,0,11,1.9,13.2,5.7
			c2.2,3.8,3.4,9.1,3.4,15.8c0,1.2,0,2.9,0,5c0,2.1,0,4.2,0,6.2c0,2.1,0,3.6,0,4.7v33.9h32.4v-31.7c0-6.2,0-11.5,0-16
			c0-4.5,0-8.3,0-11.5C641.6,216.6,638.8,206.9,633.1,200z"/>
	</g>
	<g>
		<path class="st1" d="M224.2,339.2c-7.5-4-16.5-6-26.8-6c-10,0-18.8,2-26.4,5.9c-7.6,3.9-13.5,9.4-17.8,16.5s-6.4,15.3-6.4,24.6
			c0,9.2,2.1,17.4,6.2,24.4c4.2,7.1,10,12.6,17.6,16.6c7.6,4,16.5,6,26.7,6c7.5,0,14.1-0.8,20.1-2.5c5.9-1.7,10.9-4,15.1-6.9
			c4.2-2.9,7.4-6.2,9.8-9.8c2.4-3.6,3.7-7.4,4.1-11.3h-29.9c-0.2,1-0.6,1.9-1.3,2.9c-0.7,1-1.8,1.9-3.1,2.7c-1.4,0.8-3.2,1.5-5.4,2
			c-2.2,0.5-4.9,0.8-8,0.8c-5,0-9.2-1-12.4-3c-3.2-2-5.6-4.9-7.2-8.7c-0.6-1.4-1-2.9-1.4-4.5h69.6c0.1-0.7,0.2-1.7,0.3-3
			c0.1-1.2,0.1-2.6,0.1-4.2c0-9.8-2-18.3-6.1-25.5C237.5,348.8,231.7,343.2,224.2,339.2z M186.3,357.9c3.1-1.9,7-2.8,11.5-2.8
			c4.6,0,8.3,0.8,11.1,2.5c2.8,1.7,4.9,3.8,6.2,6.3c1,2,1.6,3.9,1.8,5.9h-39c0.3-1.2,0.7-2.4,1.2-3.5
			C180.8,362.6,183.2,359.8,186.3,357.9z"/>
		<path class="st1" d="M353,417c-0.5-1.9-0.8-3.9-0.9-6.1c-0.1-2.2-0.2-4.5-0.2-6.9v-29.9c0-1.2,0-2.4,0-3.6s0-2.4,0-3.6
			c0-7.7-2.2-14-6.5-19c-4.3-5-10-8.7-17-11.1c-7-2.4-14.5-3.6-22.7-3.6c-8.6,0-16.4,1.3-23.3,3.9c-7,2.6-12.5,6.4-16.6,11.5
			c-4.1,5.1-6.1,11.3-6.1,18.7h29.9c0-3.8,1.3-6.7,4-8.6c2.7-1.9,6.7-2.8,11.9-2.8c5,0,8.9,0.8,11.7,2.5c2.9,1.7,4.3,3.9,4.3,6.6
			c0,0.1,0,0.1,0,0.2c0,1.8-1.7,3-5.2,3.7c-3.5,0.7-10,1.5-19.5,2.4c-6.6,0.6-12.8,2-18.7,4.1c-5.9,2.1-10.7,5.2-14.3,9.2
			c-3.7,4-5.5,9.3-5.5,15.8c0,5.7,1.5,10.5,4.4,14.4c2.9,4,7,7,12,9c5.1,2.1,10.9,3.1,17.4,3.1c5.4,0,10.6-0.8,15.4-2.2
			c4.9-1.5,9.1-3.7,12.7-6.5c1-0.8,1.9-1.6,2.8-2.5c0.2,0.7,0.4,1.4,0.6,2.2c0.6,1.7,1.4,3.2,2.2,4.5c0.9,1.3,1.5,2.2,2,2.6h29.6
			c-0.6-0.5-1.3-1.5-2.2-2.9C354.4,420.8,353.6,419,353,417z M318.9,396.1c-2.1,3.1-4.8,5.4-8,6.8c-3.2,1.4-6.6,2.1-10.1,2.1
			c-4,0-7-0.6-9-1.9c-2.1-1.2-3.1-3.1-3.1-5.6c0-2.6,1.2-4.5,3.6-5.6c2.4-1.1,6-2,10.8-2.5c4.5-0.5,9.2-1.1,13.9-2
			c1.7-0.3,3.4-0.7,5-1.1C321.6,390.4,320.6,393.6,318.9,396.1z"/>
		<path class="st1" d="M410.8,305.4h-30.4v8.3c0,5.1-0.2,9.1-0.6,11.9c-0.4,2.9-1.1,5-2.2,6.3c-1.1,1.4-2.9,2.2-5.2,2.5
			c-2.3,0.3-5.4,0.5-9.3,0.5H360v22.9h20.4v34.4c0,1.3,0,2.6,0,3.9c0,1.3,0,2.6,0,3.9c0,6,1.1,10.8,3.2,14.4
			c2.1,3.6,4.9,6.3,8.4,8.1c3.4,1.8,7.2,3,11.2,3.6c4,0.6,7.9,0.9,11.5,0.9c3.1,0,5.7-0.2,8.1-0.7c2.3-0.5,4.1-1,5.3-1.5v-22.2
			c-0.8,0.3-2.2,0.7-3.9,1.1c-1.8,0.4-3.6,0.6-5.6,0.6c-3.6,0-5.8-1.2-6.6-3.6s-1.3-5.3-1.3-8.9c0-0.9,0-1.8,0-2.7
			c0-0.9,0-1.8,0-2.8v-28.6h25.4V335h-25.4V305.4z"/>
		<path class="st1" d="M467.8,397.1c-4.3,0-7.9,1.5-10.9,4.5s-4.5,6.6-4.5,10.8c0,4.2,1.5,7.9,4.5,10.9c3,3,6.6,4.5,10.8,4.5
			c4.2,0,7.8-1.5,10.8-4.5c3-3,4.5-6.6,4.5-10.9c0-4.2-1.5-7.8-4.5-10.8S471.9,397.1,467.8,397.1z"/>
		<path class="st1" d="M528,298.6c-3.4-2.3-7.4-3.5-12-3.5c-4.5,0-8.5,1.2-11.9,3.5c-3.4,2.3-5.1,5.7-5.1,10.1
			c0,4.4,1.7,7.7,5.1,10.1c3.4,2.4,7.4,3.6,11.9,3.6c4.6,0,8.6-1.2,12-3.5c3.4-2.3,5.1-5.7,5.1-10.1S531.4,300.9,528,298.6z"/>
		<rect x="501.1" y="335" class="st1" width="29.9" height="90.1"/>
		<path class="st1" d="M638,350.5c-2.2-5.4-5.6-9.7-10.3-12.7c-4.7-3.1-10.8-4.6-18.3-4.6c-7.2,0-13.7,1.6-19.4,4.9
			c-4.7,2.7-8.7,6.3-11.8,10.8v-14h-30.2v90.1h30.2v-46.1c0-4.1,0.6-7.7,2-10.8c1.3-3.1,3.3-5.4,5.9-7.1c2.6-1.7,5.8-2.5,9.6-2.5
			c4.4,0,7.7,0.9,9.9,2.8c2.2,1.8,3.6,4.2,4.4,7.2c0.8,3,1.1,6.1,1.1,9.5c0,1.4,0,2.9,0,4.7s0,3.7,0,5.6v36.6h30.2v-33.8
			c0-4.1,0-8,0-11.8c0-3.8,0-7.2,0-10.2C641.3,362.2,640.2,355.9,638,350.5z"/>
	</g>
</g>
</svg>
